<svg width="1353" height="471" viewBox="0 0 1353 471" fill="none" xmlns="http://www.w3.org/2000/svg">
<path d="M2.99594 -34.9384C2.99594 -34.9384 14.13 185.507 179.927 266.847C284.427 318.144 442.015 276.736 502.623 172.457C530.313 124.813 532.775 63.6382 487.918 31.807C450.81 5.47666 399.33 19.0811 368.279 48.4615C332.747 82.0621 314.221 129.858 307.951 177.798C297.559 257.195 324.933 340.698 381.654 397.464C439.52 455.391 521.838 477.682 601.767 463.733C662.76 453.088 717.663 422.427 768.327 388.075C835.193 342.738 900.475 285.176 980.326 262.479C1019.31 251.395 1063.92 249.634 1102.93 264.359C1138.81 277.906 1173.7 314.614 1152.59 354.898C1149.15 361.466 1144.12 367.505 1137.31 370.432C1130.51 373.358 1121.77 372.484 1116.77 367.032C1107.95 357.398 1115.54 341.363 1126.09 333.674C1156.83 311.289 1193.54 329.442 1222.01 346.08C1265.97 371.762 1309.18 399.537 1356.92 417.197C1404.67 434.858 1458.42 441.725 1506.36 424.587" stroke="#FF7B30" stroke-width="6" stroke-miterlimit="10"/>
</svg>
